<mxfile host="app.diagrams.net" agent="Mozilla/5.0 (Windows NT 10.0; Win64; x64) AppleWebKit/537.36 (KHTML, like Gecko) Chrome/132.0.0.0 Safari/537.36" version="26.0.9" pages="2">
  <diagram name="Alternativa 1" id="sGFwJbSQi8Kc6yqilv0g">
    <mxGraphModel dx="880" dy="426" grid="1" gridSize="10" guides="1" tooltips="1" connect="1" arrows="1" fold="1" page="1" pageScale="1" pageWidth="827" pageHeight="1169" math="0" shadow="0">
      <root>
        <mxCell id="0" />
        <mxCell id="1" parent="0" />
        <mxCell id="h38R2ZGHGnlqwJ9zk-1k-24" style="edgeStyle=orthogonalEdgeStyle;rounded=0;orthogonalLoop=1;jettySize=auto;html=1;exitX=1;exitY=0.75;exitDx=0;exitDy=0;" edge="1" parent="1" source="h38R2ZGHGnlqwJ9zk-1k-6">
          <mxGeometry relative="1" as="geometry">
            <mxPoint x="390" y="344" as="targetPoint" />
          </mxGeometry>
        </mxCell>
        <mxCell id="h38R2ZGHGnlqwJ9zk-1k-28" style="edgeStyle=orthogonalEdgeStyle;rounded=0;orthogonalLoop=1;jettySize=auto;html=1;exitX=0.5;exitY=1;exitDx=0;exitDy=0;" edge="1" parent="1" source="h38R2ZGHGnlqwJ9zk-1k-6">
          <mxGeometry relative="1" as="geometry">
            <mxPoint x="180" y="480" as="targetPoint" />
          </mxGeometry>
        </mxCell>
        <mxCell id="h38R2ZGHGnlqwJ9zk-1k-29" value="Webhook Cliente" style="edgeLabel;html=1;align=center;verticalAlign=middle;resizable=0;points=[];" vertex="1" connectable="0" parent="h38R2ZGHGnlqwJ9zk-1k-28">
          <mxGeometry x="0.9997" y="1" relative="1" as="geometry">
            <mxPoint as="offset" />
          </mxGeometry>
        </mxCell>
        <mxCell id="h38R2ZGHGnlqwJ9zk-1k-6" value="vpc-payments-prod-use1" style="points=[[0,0],[0.25,0],[0.5,0],[0.75,0],[1,0],[1,0.25],[1,0.5],[1,0.75],[1,1],[0.75,1],[0.5,1],[0.25,1],[0,1],[0,0.75],[0,0.5],[0,0.25]];outlineConnect=0;gradientColor=none;html=1;whiteSpace=wrap;fontSize=12;fontStyle=0;container=1;pointerEvents=0;collapsible=0;recursiveResize=0;shape=mxgraph.aws4.group;grIcon=mxgraph.aws4.group_vpc2;strokeColor=#8C4FFF;fillColor=none;verticalAlign=top;align=left;spacingLeft=30;fontColor=#AAB7B8;dashed=0;" vertex="1" parent="1">
          <mxGeometry x="80" y="179" width="200" height="220" as="geometry" />
        </mxCell>
        <mxCell id="h38R2ZGHGnlqwJ9zk-1k-2" value="" style="outlineConnect=0;dashed=0;verticalLabelPosition=bottom;verticalAlign=top;align=center;html=1;shape=mxgraph.aws3.sqs;fillColor=#D9A741;gradientColor=none;" vertex="1" parent="h38R2ZGHGnlqwJ9zk-1k-6">
          <mxGeometry x="80" y="40" width="40" height="40" as="geometry" />
        </mxCell>
        <mxCell id="h38R2ZGHGnlqwJ9zk-1k-15" value="" style="outlineConnect=0;dashed=0;verticalLabelPosition=bottom;verticalAlign=top;align=center;html=1;shape=mxgraph.aws3.lambda;fillColor=#F58534;gradientColor=none;" vertex="1" parent="h38R2ZGHGnlqwJ9zk-1k-6">
          <mxGeometry x="80" y="140" width="40" height="40" as="geometry" />
        </mxCell>
        <mxCell id="h38R2ZGHGnlqwJ9zk-1k-18" style="edgeStyle=orthogonalEdgeStyle;rounded=0;orthogonalLoop=1;jettySize=auto;html=1;exitX=0.5;exitY=1;exitDx=0;exitDy=0;exitPerimeter=0;entryX=0.5;entryY=0;entryDx=0;entryDy=0;entryPerimeter=0;" edge="1" parent="h38R2ZGHGnlqwJ9zk-1k-6" source="h38R2ZGHGnlqwJ9zk-1k-2" target="h38R2ZGHGnlqwJ9zk-1k-15">
          <mxGeometry relative="1" as="geometry" />
        </mxCell>
        <mxCell id="h38R2ZGHGnlqwJ9zk-1k-19" value="subnet-private-payments-prod-use1-az1" style="sketch=0;outlineConnect=0;gradientColor=none;html=1;whiteSpace=wrap;fontSize=12;fontStyle=0;shape=mxgraph.aws4.group;grIcon=mxgraph.aws4.group_subnet;strokeColor=#879196;fillColor=none;verticalAlign=top;align=left;spacingLeft=30;fontColor=#879196;dashed=0;" vertex="1" parent="1">
          <mxGeometry x="390" y="286.5" width="260" height="120" as="geometry" />
        </mxCell>
        <mxCell id="h38R2ZGHGnlqwJ9zk-1k-20" value="" style="sketch=0;outlineConnect=0;fontColor=#232F3E;gradientColor=none;fillColor=#C925D1;strokeColor=none;dashed=0;verticalLabelPosition=bottom;verticalAlign=top;align=center;html=1;fontSize=12;fontStyle=0;aspect=fixed;pointerEvents=1;shape=mxgraph.aws4.rds_instance;" vertex="1" parent="1">
          <mxGeometry x="500" y="319" width="35" height="35" as="geometry" />
        </mxCell>
        <mxCell id="h38R2ZGHGnlqwJ9zk-1k-26" style="edgeStyle=orthogonalEdgeStyle;rounded=0;orthogonalLoop=1;jettySize=auto;html=1;exitX=0.5;exitY=1;exitDx=0;exitDy=0;exitPerimeter=0;entryX=0.5;entryY=0;entryDx=0;entryDy=0;" edge="1" parent="1" source="h38R2ZGHGnlqwJ9zk-1k-25" target="h38R2ZGHGnlqwJ9zk-1k-6">
          <mxGeometry relative="1" as="geometry" />
        </mxCell>
        <mxCell id="h38R2ZGHGnlqwJ9zk-1k-25" value="Api Gateway" style="outlineConnect=0;dashed=0;verticalLabelPosition=bottom;verticalAlign=top;align=center;html=1;shape=mxgraph.aws3.api_gateway;fillColor=#D9A741;gradientColor=none;" vertex="1" parent="1">
          <mxGeometry x="155" y="30" width="50" height="70" as="geometry" />
        </mxCell>
        <mxCell id="h38R2ZGHGnlqwJ9zk-1k-30" value="Alternativa 1: Diagrama con AWS Lambda y SQS (Serverless)" style="text;html=1;align=center;verticalAlign=middle;resizable=0;points=[];autosize=1;strokeColor=none;fillColor=none;" vertex="1" parent="1">
          <mxGeometry x="300" y="10" width="350" height="30" as="geometry" />
        </mxCell>
      </root>
    </mxGraphModel>
  </diagram>
  <diagram id="jDkYbVUQN8g_KYL4SCMt" name="Alternativa 2">
    <mxGraphModel dx="880" dy="426" grid="1" gridSize="10" guides="1" tooltips="1" connect="1" arrows="1" fold="1" page="1" pageScale="1" pageWidth="827" pageHeight="1169" math="0" shadow="0">
      <root>
        <mxCell id="0" />
        <mxCell id="1" parent="0" />
        <mxCell id="GQRAT8H9VFw2ACDAwrIM-2" style="edgeStyle=orthogonalEdgeStyle;rounded=0;orthogonalLoop=1;jettySize=auto;html=1;" edge="1" parent="1" source="-m2dclb5wuR-zz7CsKUo-2" target="-m2dclb5wuR-zz7CsKUo-3">
          <mxGeometry relative="1" as="geometry" />
        </mxCell>
        <mxCell id="-m2dclb5wuR-zz7CsKUo-2" value="vpc-payments-prod-use1" style="sketch=0;outlineConnect=0;gradientColor=none;html=1;whiteSpace=wrap;fontSize=12;fontStyle=0;shape=mxgraph.aws4.group;grIcon=mxgraph.aws4.group_vpc;strokeColor=#B6BABF;fillColor=none;verticalAlign=top;align=left;spacingLeft=30;fontColor=#B6BABF;dashed=0;" vertex="1" parent="1">
          <mxGeometry x="40" y="120" width="280" height="120" as="geometry" />
        </mxCell>
        <mxCell id="GQRAT8H9VFw2ACDAwrIM-3" style="edgeStyle=orthogonalEdgeStyle;rounded=0;orthogonalLoop=1;jettySize=auto;html=1;" edge="1" parent="1" source="-m2dclb5wuR-zz7CsKUo-3" target="-m2dclb5wuR-zz7CsKUo-5">
          <mxGeometry relative="1" as="geometry" />
        </mxCell>
        <mxCell id="GQRAT8H9VFw2ACDAwrIM-4" style="edgeStyle=orthogonalEdgeStyle;rounded=0;orthogonalLoop=1;jettySize=auto;html=1;" edge="1" parent="1" source="-m2dclb5wuR-zz7CsKUo-3" target="-m2dclb5wuR-zz7CsKUo-4">
          <mxGeometry relative="1" as="geometry" />
        </mxCell>
        <mxCell id="-m2dclb5wuR-zz7CsKUo-3" value="subnet-private-payments-prod-use1-az1/subnet-private-payments-prod-use1-az2" style="sketch=0;outlineConnect=0;gradientColor=none;html=1;whiteSpace=wrap;fontSize=12;fontStyle=0;shape=mxgraph.aws4.group;grIcon=mxgraph.aws4.group_subnet;strokeColor=#879196;fillColor=none;verticalAlign=top;align=left;spacingLeft=30;fontColor=#879196;dashed=0;" vertex="1" parent="1">
          <mxGeometry x="40" y="280" width="280" height="120" as="geometry" />
        </mxCell>
        <mxCell id="-m2dclb5wuR-zz7CsKUo-4" value="subnet-private-payments-prod-use1-az1" style="sketch=0;outlineConnect=0;gradientColor=none;html=1;whiteSpace=wrap;fontSize=12;fontStyle=0;shape=mxgraph.aws4.group;grIcon=mxgraph.aws4.group_subnet;strokeColor=#879196;fillColor=none;verticalAlign=top;align=left;spacingLeft=30;fontColor=#879196;dashed=0;" vertex="1" parent="1">
          <mxGeometry x="400" y="280" width="260" height="120" as="geometry" />
        </mxCell>
        <mxCell id="aTVBCUs7XavkKlXttjXD-5" style="edgeStyle=orthogonalEdgeStyle;rounded=0;orthogonalLoop=1;jettySize=auto;html=1;" edge="1" parent="1" source="-m2dclb5wuR-zz7CsKUo-5">
          <mxGeometry relative="1" as="geometry">
            <mxPoint x="180" y="640" as="targetPoint" />
          </mxGeometry>
        </mxCell>
        <mxCell id="aTVBCUs7XavkKlXttjXD-6" value="Webhook Cliente" style="edgeLabel;html=1;align=center;verticalAlign=middle;resizable=0;points=[];" vertex="1" connectable="0" parent="aTVBCUs7XavkKlXttjXD-5">
          <mxGeometry x="1" y="-3" relative="1" as="geometry">
            <mxPoint x="1" y="2" as="offset" />
          </mxGeometry>
        </mxCell>
        <mxCell id="-m2dclb5wuR-zz7CsKUo-5" value="subnet-private-payments-prod-use1-az1/subnet-private-payments-prod-use1-az2" style="sketch=0;outlineConnect=0;gradientColor=none;html=1;whiteSpace=wrap;fontSize=12;fontStyle=0;shape=mxgraph.aws4.group;grIcon=mxgraph.aws4.group_subnet;strokeColor=#879196;fillColor=none;verticalAlign=top;align=left;spacingLeft=30;fontColor=#879196;dashed=0;" vertex="1" parent="1">
          <mxGeometry x="40" y="440" width="280" height="120" as="geometry" />
        </mxCell>
        <mxCell id="1wGV8Ru0VzDLWQfR_aeg-1" value="" style="outlineConnect=0;dashed=0;verticalLabelPosition=bottom;verticalAlign=top;align=center;html=1;shape=mxgraph.aws3.sqs;fillColor=#D9A741;gradientColor=none;" vertex="1" parent="1">
          <mxGeometry x="160" y="160" width="40" height="40" as="geometry" />
        </mxCell>
        <mxCell id="1wGV8Ru0VzDLWQfR_aeg-2" value="" style="outlineConnect=0;dashed=0;verticalLabelPosition=bottom;verticalAlign=top;align=center;html=1;shape=mxgraph.aws3.ecs;fillColor=#F58534;gradientColor=none;" vertex="1" parent="1">
          <mxGeometry x="155" y="320" width="50" height="40" as="geometry" />
        </mxCell>
        <mxCell id="1wGV8Ru0VzDLWQfR_aeg-3" value="" style="points=[];aspect=fixed;html=1;align=center;shadow=0;dashed=0;fillColor=#FF6A00;strokeColor=none;shape=mxgraph.alibaba_cloud.alb_application_load_balancer_02;" vertex="1" parent="1">
          <mxGeometry x="157.5" y="500" width="45" height="45" as="geometry" />
        </mxCell>
        <mxCell id="GQRAT8H9VFw2ACDAwrIM-1" value="" style="sketch=0;outlineConnect=0;fontColor=#232F3E;gradientColor=none;fillColor=#C925D1;strokeColor=none;dashed=0;verticalLabelPosition=bottom;verticalAlign=top;align=center;html=1;fontSize=12;fontStyle=0;aspect=fixed;pointerEvents=1;shape=mxgraph.aws4.rds_instance;" vertex="1" parent="1">
          <mxGeometry x="512.5" y="325" width="35" height="35" as="geometry" />
        </mxCell>
        <mxCell id="aTVBCUs7XavkKlXttjXD-7" value="Alternativa 2: Diagrama con ECS Fargate" style="text;html=1;align=center;verticalAlign=middle;resizable=0;points=[];autosize=1;strokeColor=none;fillColor=none;" vertex="1" parent="1">
          <mxGeometry x="320" y="50" width="240" height="30" as="geometry" />
        </mxCell>
      </root>
    </mxGraphModel>
  </diagram>
</mxfile>
